<mxfile host="Electron" modified="2024-02-18T09:52:19.519Z" agent="Mozilla/5.0 (Windows NT 10.0; Win64; x64) AppleWebKit/537.36 (KHTML, like Gecko) draw.io/23.0.2 Chrome/120.0.6099.109 Electron/28.1.0 Safari/537.36" etag="ONAdHhx5n26vD8RBIu4a" version="23.0.2" type="device">
  <diagram name="第 1 页" id="Pz6pZendhVUhPBIGS2Qg">
    <mxGraphModel dx="902" dy="741" grid="1" gridSize="10" guides="1" tooltips="1" connect="1" arrows="1" fold="1" page="1" pageScale="1" pageWidth="827" pageHeight="1169" math="0" shadow="0">
      <root>
        <mxCell id="0" />
        <mxCell id="1" parent="0" />
        <mxCell id="jzFRUwxAYgY1uE44CHie-3" value="" style="rounded=0;whiteSpace=wrap;html=1;dashed=1;" parent="1" vertex="1">
          <mxGeometry x="240" y="120" width="240" height="460" as="geometry" />
        </mxCell>
        <mxCell id="jzFRUwxAYgY1uE44CHie-4" value="EBP 旧址（main() 的调用者）" style="rounded=0;whiteSpace=wrap;html=1;fillColor=#1ba1e2;fontColor=#ffffff;strokeColor=#006EAF;" parent="1" vertex="1">
          <mxGeometry x="250" y="130" width="220" height="30" as="geometry" />
        </mxCell>
        <mxCell id="jzFRUwxAYgY1uE44CHie-5" value="main() 的栈帧" style="text;html=1;align=center;verticalAlign=middle;resizable=0;points=[];autosize=1;strokeColor=none;fillColor=none;fontSize=12;" parent="1" vertex="1">
          <mxGeometry x="110" y="275" width="100" height="30" as="geometry" />
        </mxCell>
        <mxCell id="jzFRUwxAYgY1uE44CHie-6" value="main() 内的局部变量和对应值" style="rounded=0;whiteSpace=wrap;html=1;fillColor=#1ba1e2;fontColor=#ffffff;strokeColor=#006EAF;" parent="1" vertex="1">
          <mxGeometry x="250" y="170" width="220" height="30" as="geometry" />
        </mxCell>
        <mxCell id="jzFRUwxAYgY1uE44CHie-7" value="调用函数前，寄存器中需要保存的值，一般存被调用者保存寄存器中的值。这里可以空着（未使用，用来填充，因为要保证栈帧大小为 16B 的倍数）" style="rounded=0;whiteSpace=wrap;html=1;fillColor=#1ba1e2;fontColor=#ffffff;strokeColor=#006EAF;" parent="1" vertex="1">
          <mxGeometry x="250" y="210" width="220" height="80" as="geometry" />
        </mxCell>
        <mxCell id="jzFRUwxAYgY1uE44CHie-8" value="" style="endArrow=classic;html=1;rounded=0;" parent="1" edge="1">
          <mxGeometry width="50" height="50" relative="1" as="geometry">
            <mxPoint x="119.17" y="120" as="sourcePoint" />
            <mxPoint x="119.17" y="540" as="targetPoint" />
          </mxGeometry>
        </mxCell>
        <mxCell id="jzFRUwxAYgY1uE44CHie-9" value="高地址（栈底）" style="text;html=1;align=center;verticalAlign=middle;resizable=0;points=[];autosize=1;strokeColor=none;fillColor=none;" parent="1" vertex="1">
          <mxGeometry x="70" y="90" width="110" height="30" as="geometry" />
        </mxCell>
        <mxCell id="jzFRUwxAYgY1uE44CHie-10" value="低地址（栈顶）" style="text;html=1;align=center;verticalAlign=middle;resizable=0;points=[];autosize=1;strokeColor=none;fillColor=none;" parent="1" vertex="1">
          <mxGeometry x="70" y="540" width="110" height="30" as="geometry" />
        </mxCell>
        <mxCell id="w4NcuCcOFthsTrw9A4NJ-1" value="调用函数的参数，也就是传入被调用者的参数，右边的参数在高地址（偏栈顶），左边的参数在低地址。&lt;br&gt;比如这里就是：&lt;br&gt;y&lt;br&gt;x" style="rounded=0;whiteSpace=wrap;html=1;fillColor=#e51400;fontColor=#ffffff;strokeColor=#B20000;" parent="1" vertex="1">
          <mxGeometry x="250" y="300" width="220" height="90" as="geometry" />
        </mxCell>
        <mxCell id="w4NcuCcOFthsTrw9A4NJ-2" value="返回地址（指的是调用函数后的一下条指令的地址）&lt;br&gt;这里就是 return 0 对应指令的地址" style="rounded=0;whiteSpace=wrap;html=1;fillColor=#e51400;strokeColor=#B20000;fontColor=#ffffff;" parent="1" vertex="1">
          <mxGeometry x="250" y="400" width="220" height="50" as="geometry" />
        </mxCell>
        <mxCell id="w4NcuCcOFthsTrw9A4NJ-15" style="edgeStyle=orthogonalEdgeStyle;rounded=0;orthogonalLoop=1;jettySize=auto;html=1;entryX=1;entryY=0.5;entryDx=0;entryDy=0;" parent="1" source="w4NcuCcOFthsTrw9A4NJ-3" target="jzFRUwxAYgY1uE44CHie-4" edge="1">
          <mxGeometry relative="1" as="geometry">
            <Array as="points">
              <mxPoint x="500" y="475" />
              <mxPoint x="500" y="145" />
            </Array>
          </mxGeometry>
        </mxCell>
        <mxCell id="w4NcuCcOFthsTrw9A4NJ-3" value="EBP 旧址（main() 的栈底地址）" style="rounded=0;whiteSpace=wrap;html=1;fillColor=#e51400;fontColor=#ffffff;strokeColor=#B20000;" parent="1" vertex="1">
          <mxGeometry x="250" y="460" width="220" height="30" as="geometry" />
        </mxCell>
        <mxCell id="w4NcuCcOFthsTrw9A4NJ-4" value="..." style="rounded=0;whiteSpace=wrap;html=1;fillColor=#1ba1e2;fontColor=#ffffff;strokeColor=#006EAF;" parent="1" vertex="1">
          <mxGeometry x="250" y="540" width="220" height="30" as="geometry" />
        </mxCell>
        <mxCell id="w4NcuCcOFthsTrw9A4NJ-5" value="" style="endArrow=none;html=1;rounded=0;exitX=0;exitY=1;exitDx=0;exitDy=0;" parent="1" source="jzFRUwxAYgY1uE44CHie-3" edge="1">
          <mxGeometry width="50" height="50" relative="1" as="geometry">
            <mxPoint x="190" y="170" as="sourcePoint" />
            <mxPoint x="240" y="120" as="targetPoint" />
          </mxGeometry>
        </mxCell>
        <mxCell id="w4NcuCcOFthsTrw9A4NJ-6" value="" style="endArrow=none;html=1;rounded=0;entryX=1;entryY=0;entryDx=0;entryDy=0;" parent="1" target="jzFRUwxAYgY1uE44CHie-3" edge="1">
          <mxGeometry width="50" height="50" relative="1" as="geometry">
            <mxPoint x="240" y="120" as="sourcePoint" />
            <mxPoint x="290" y="70" as="targetPoint" />
          </mxGeometry>
        </mxCell>
        <mxCell id="w4NcuCcOFthsTrw9A4NJ-7" value="" style="endArrow=none;html=1;rounded=0;exitX=1;exitY=1;exitDx=0;exitDy=0;" parent="1" source="jzFRUwxAYgY1uE44CHie-3" edge="1">
          <mxGeometry width="50" height="50" relative="1" as="geometry">
            <mxPoint x="430" y="170" as="sourcePoint" />
            <mxPoint x="480" y="120" as="targetPoint" />
          </mxGeometry>
        </mxCell>
        <mxCell id="w4NcuCcOFthsTrw9A4NJ-8" value="" style="shape=curlyBracket;whiteSpace=wrap;html=1;rounded=1;labelPosition=left;verticalLabelPosition=middle;align=right;verticalAlign=middle;" parent="1" vertex="1">
          <mxGeometry x="190" y="130" width="40" height="320" as="geometry" />
        </mxCell>
        <mxCell id="w4NcuCcOFthsTrw9A4NJ-13" value="" style="shape=curlyBracket;whiteSpace=wrap;html=1;rounded=1;labelPosition=left;verticalLabelPosition=middle;align=right;verticalAlign=middle;" parent="1" vertex="1">
          <mxGeometry x="190" y="460" width="40" height="110" as="geometry" />
        </mxCell>
        <mxCell id="w4NcuCcOFthsTrw9A4NJ-14" value="sum() 的栈帧" style="text;html=1;align=center;verticalAlign=middle;resizable=0;points=[];autosize=1;strokeColor=none;fillColor=none;" parent="1" vertex="1">
          <mxGeometry x="120" y="485" width="90" height="30" as="geometry" />
        </mxCell>
        <mxCell id="w4NcuCcOFthsTrw9A4NJ-17" style="edgeStyle=orthogonalEdgeStyle;rounded=0;orthogonalLoop=1;jettySize=auto;html=1;" parent="1" source="w4NcuCcOFthsTrw9A4NJ-16" target="w4NcuCcOFthsTrw9A4NJ-3" edge="1">
          <mxGeometry relative="1" as="geometry" />
        </mxCell>
        <mxCell id="w4NcuCcOFthsTrw9A4NJ-16" value="执行 sum() 时的 EBP&lt;br&gt;&lt;div&gt;EBP + x 表示访问函数的参数。&lt;/div&gt;&lt;div&gt;EBP - x 表示访问函数内部的局部变量。&lt;/div&gt;" style="rounded=0;whiteSpace=wrap;html=1;" parent="1" vertex="1">
          <mxGeometry x="520" y="450" width="230" height="50" as="geometry" />
        </mxCell>
        <mxCell id="sMfdCwaQEdPf0XManJ4k-1" value="sum() 内的局部变量和对应值" style="rounded=0;whiteSpace=wrap;html=1;fillColor=#e51400;fontColor=#ffffff;strokeColor=#B20000;" vertex="1" parent="1">
          <mxGeometry x="250" y="500" width="220" height="30" as="geometry" />
        </mxCell>
      </root>
    </mxGraphModel>
  </diagram>
</mxfile>
